<?xml version="1.0" encoding="UTF-8"?>
<svg width="200" height="60" viewBox="0 0 200 60" xmlns="http://www.w3.org/2000/svg">
  <!-- Simple Flower Icon -->
  <g transform="translate(10, 15)">
    <circle cx="20" cy="20" r="15" fill="#f9f3e5" stroke="#8B5A2B" stroke-width="1.5"/>
    <path d="M20,10 L20,30 M10,20 L30,20" stroke="#8B5A2B" stroke-width="1.5"/>
    <circle cx="20" cy="20" r="5" fill="#ffcc00"/>
  </g>

  <!-- Bloomies Text as Paths -->
  <g fill="#8B5A2B">
    <!-- B -->
    <path d="M55,20 L55,40 L65,40 C68,40 70,38 70,35 C70,32 68,30 65,30 L65,30 C67,30 68,28 68,25 C68,22 66,20 63,20 L55,20 Z M60,24 L62,24 C63,24 64,24.5 64,26 C64,27.5 63,28 62,28 L60,28 L60,24 Z M60,32 L63,32 C64,32 65,33 65,35 C65,37 64,36.5 63,36.5 L60,36.5 L60,32 Z"/>
    <!-- l -->
    <path d="M72,15 L72,40 L77,40 L77,15 L72,15 Z"/>
    <!-- o -->
    <path d="M80,30 C80,25 83,24 86,24 C89,24 92,25 92,30 C92,35 89,36 86,36 C83,36 80,35 80,30 Z M85,28 C84,28 84,29 84,30 C84,31 84,32 85,32 C86,32 87,31 87,30 C87,29 86,28 85,28 Z"/>
    <!-- o -->
    <path d="M94,30 C94,25 97,24 100,24 C103,24 106,25 106,30 C106,35 103,36 100,36 C97,36 94,35 94,30 Z M99,28 C98,28 98,29 98,30 C98,31 98,32 99,32 C100,32 101,31 101,30 C101,29 100,28 99,28 Z"/>
    <!-- m -->
    <path d="M108,25 L113,25 L113,27 C113,27 114,24 117,24 C120,24 120,27 120,27 C120,27 121,24 124,24 C127,24 128,26 128,29 L128,40 L123,40 L123,30 C123,29 123,28 122,28 C121,28 120,29 120,30 L120,40 L115,40 L115,30 C115,29 115,28 114,28 C113,28 113,29 113,30 L113,40 L108,40 L108,25 Z"/>
    <!-- i -->
    <path d="M130,18 L135,18 L135,22 L130,22 L130,18 Z M130,25 L135,25 L135,40 L130,40 L130,25 Z"/>
    <!-- e -->
    <path d="M138,30 C138,25 141,24 144,24 C147,24 150,25 150,30 L150,32 L143,32 C143,33 144,33 145,33 C146,33 147,32.5 147,32.5 L149,35 C149,35 147,36 144,36 C141,36 138,35 138,30 Z M143,29 L146,29 C146,28 145,28 144,28 C143,28 143,28 143,29 Z"/>
    <!-- s -->
    <path d="M152,30 C152,25 155,24 158,24 C161,24 163,25 163,25 L161,29 C161,29 160,28 158,28 C156,28 156,29 156,29 C156,31 163,30 163,35 C163,39 158,41 155,41 C152,41 150,40 150,40 L152,36 C152,36 154,37 156,37 C158,37 158,36 158,35 C158,33 152,34 152,30 Z"/>
  </g>
</svg>
