<?xml version="1.0" encoding="utf-8"?>
<svg width="32px" height="32px" viewBox="0 0 32 32" fill="none" xmlns="http://www.w3.org/2000/svg">
  <!-- Simple Elegant Flower -->
  <rect width="32" height="32" rx="4" fill="#f9f3e5"/>

  <!-- Stylized B -->
  <path d="M8,6 L8,26 L18,26 C21,26 24,23 24,21 C24,18 21,16 18,16 C20,16 22,14 22,11 C22,8 19,6 16,6 L8,6 Z" fill="#8B5A2B"/>

  <!-- Inner details -->
  <path d="M12,10 L15,10 C16,10 18,10.5 18,12 C18,13.5 16,14 15,14 L12,14 L12,10 Z" fill="#f9f3e5"/>
  <path d="M12,18 L16,18 C17,18 20,18.5 20,21 C20,23.5 17,22 16,22 L12,22 L12,18 Z" fill="#f9f3e5"/>
</svg>
