<?xml version="1.0" encoding="UTF-8"?>
<svg width="200px" height="60px" viewBox="0 0 200 60" version="1.1" xmlns="http://www.w3.org/2000/svg">
    <g stroke="none" stroke-width="1" fill="none" fill-rule="evenodd">
        <g transform="translate(10, 5)">
            <!-- Flower Icon -->
            <g transform="translate(0, 0)">
                <path d="M25 50C25 50 40 42 40 30C40 18 30 16 25 26C20 16 10 18 10 30C10 42 25 50 25 50Z" stroke="#8B5A2B" stroke-width="1.5" stroke-linecap="round" stroke-linejoin="round"/>
                <path d="M25 50C25 50 27 42 27 30C27 18 25 10 25 10C25 10 23 18 23 30C23 42 25 50 25 50Z" stroke="#8B5A2B" stroke-width="1.5" stroke-linecap="round" stroke-linejoin="round"/>
                <path d="M25 50C25 50 33 42 33 30C33 18 25 16 25 16C25 16 17 18 17 30C17 42 25 50 25 50Z" stroke="#8B5A2B" stroke-width="1.5" stroke-linecap="round" stroke-linejoin="round"/>
            </g>
            
            <!-- Bloomies Text -->
            <g transform="translate(55, 30)" fill="#8B5A2B">
                <path d="M0,0 C0,-10 6,-15 12,-15 C18,-15 24,-10 24,0 C24,10 18,15 12,15 C6,15 0,10 0,0 Z M6,0 C6,6 8,9 12,9 C16,9 18,6 18,0 C18,-6 16,-9 12,-9 C8,-9 6,-6 6,0 Z" />
                <path d="M30,-14 L36,-14 L36,14 L30,14 L30,-14 Z" />
                <path d="M42,0 C42,-10 48,-15 54,-15 C60,-15 66,-10 66,0 C66,10 60,15 54,15 C48,15 42,10 42,0 Z M48,0 C48,6 50,9 54,9 C58,9 60,6 60,0 C60,-6 58,-9 54,-9 C50,-9 48,-6 48,0 Z" />
                <path d="M72,0 C72,-10 78,-15 84,-15 C90,-15 96,-10 96,0 C96,10 90,15 84,15 C78,15 72,10 72,0 Z M78,0 C78,6 80,9 84,9 C88,9 90,6 90,0 C90,-6 88,-9 84,-9 C80,-9 78,-6 78,0 Z" />
                <path d="M102,-14 L108,-14 L108,0 L114,0 L114,6 L108,6 L108,14 L102,14 L102,6 L96,6 L96,0 L102,0 L102,-14 Z" />
                <path d="M120,-14 L126,-14 L126,14 L120,14 L120,-14 Z" />
                <path d="M132,-14 L138,-14 L138,0 C138,6 140,9 144,9 C148,9 150,6 150,0 L150,-14 L156,-14 L156,0 C156,10 150,15 144,15 C138,15 132,10 132,0 L132,-14 Z" />
            </g>
        </g>
    </g>
</svg>
