<?xml version="1.0" encoding="utf-8"?><!-- Uploaded to: SVG Repo, www.svgrepo.com, Generator: SVG Repo Mixer Tools -->
<svg width="800px" height="800px" viewBox="0 0 24 24" fill="none" xmlns="http://www.w3.org/2000/svg">
<path d="M12 22C12 22 20 18 20 12C20 6 15 5 12 10C9 5 4 6 4 12C4 18 12 22 12 22Z" stroke="#8B5A2B" stroke-width="1.5" stroke-linecap="round" stroke-linejoin="round"/>
<path d="M12 22C12 22 13 18 13 12C13 6 12 2 12 2C12 2 11 6 11 12C11 18 12 22 12 22Z" stroke="#8B5A2B" stroke-width="1.5" stroke-linecap="round" stroke-linejoin="round"/>
<path d="M12 22C12 22 16 18 16 12C16 6 12 5 12 5C12 5 8 6 8 12C8 18 12 22 12 22Z" stroke="#8B5A2B" stroke-width="1.5" stroke-linecap="round" stroke-linejoin="round"/>
</svg>
